<svg id="圖層_1" data-name="圖層 1" xmlns="http://www.w3.org/2000/svg" viewBox="0 0 512 512"><defs><style>.earth-cls-1{fill:#3c7ca6;}.earth-cls-2{fill:#49c15f;}</style></defs><title>Earth</title><path class="earth-cls-1" d="M44.89,308.48,38.17,252.9A109.82,109.82,0,0,0,43.28,243c3.37-8.41,4-19.87,10.12-24.83C67,207.13,74.82,193.67,80.64,177.86c2-5.4,5.86-11.44,10.62-14.26,15.81-9.42,33.08-16.46,48.56-26.36,21.05-13.45,41.52-28,61.18-43.38C220,79,237.71,62.42,255.82,46.4c2.52-2.22,4.06-5.54,6.05-8.36,25.71-.85,50.08,5,73.72,14.58-.68,2.61-.64,5.78-2.16,7.74-4.67,6-10.18,11.38-14.89,17.36C310.21,88.28,301.93,98.9,294.32,110c-1.87,2.73-1.57,7.29-1.43,11,.23,6.3,1.75,12.58,1.6,18.84-.24,10.53-4.27,21.9-1.44,31.33,4.06,13.47,9.27,27.66,22.72,36.25,6.73,4.29,12.44,10.19,19.5,16.11-14.56,4.18-26.46,4.66-37.52-5.95-5-4.79-13.62-10.57-18.91-9.23-10.57,2.67-22.57,7.8-29.22,15.85-8.41,10.17-12.12,24.23-17.72,36.68a8,8,0,0,0-.14,4.39c2.88,16.21,3.72,33.2,9.39,48.38s12.94,30.93,30.22,38.21c3.08,1.3,5.53,6.6,6.28,10.44,1.47,7.47.67,15.42,2.39,22.79,2.12,9.06,4.89,18,12.75,24.63,5.9,5,10.76,11.43,15.29,17.79,9.34,13.11,22.32,19.34,32.43,9.39,8.73-8.6,19.2-17,24.07-27.68,15.71-34.48,30-69.67,43.17-105.22,6.91-18.66,11.87-38.41,7.76-59a6.68,6.68,0,0,1,1.83-5.33c13.79-12.24,27.76-24.27,41.42-36.14l10.6,6.86c24,120.08-49.57,233-169.08,258.7-26.17,5.63-52.71,7.13-79.19,1.05C220.29,457,207,456.05,199,448.23c11-6.89,7.95-16.12,4.81-25.26-1.72-5-3.77-9.9-5.66-14.84-15.3-40.13-44.72-66.48-82.87-83.91-3.87-1.77-9.82-.83-14.15.71-5.93,2.12-11.39,5.77-16.75,9.23-3.67,2.37-6.85,5.51-10.2,8.37s-6.38,5.58-11.24,9.84c-4.68-13.15-8.58-24.53-12.85-35.77C49,313.66,46.65,311.17,44.89,308.48Z"/><path class="earth-cls-2" d="M469.36,210.37l-10.6-6.86c-13.66,11.87-27.63,23.9-41.42,36.14a6.68,6.68,0,0,0-1.83,5.33c4.11,20.55-.85,40.3-7.76,59-13.15,35.55-27.46,70.74-43.17,105.22-4.87,10.69-15.34,19.08-24.07,27.68-10.11,10-23.09,3.72-32.43-9.39-4.53-6.36-9.39-12.79-15.29-17.79C284.93,403,282.16,394.09,280,385c-1.72-7.37-.92-15.32-2.39-22.79-.75-3.84-3.2-9.14-6.28-10.44-17.28-7.28-24.56-23.05-30.22-38.21s-6.51-32.17-9.39-48.38a8,8,0,0,1,.14-4.39c5.6-12.45,9.31-26.51,17.72-36.68,6.65-8,18.65-13.18,29.22-15.85,5.29-1.34,13.92,4.44,18.91,9.23,11.06,10.61,23,10.13,37.52,5.95-7.06-5.92-12.77-11.82-19.5-16.11-13.45-8.59-18.66-22.78-22.72-36.25-2.83-9.43,1.2-20.8,1.44-31.33.15-6.26-1.37-12.54-1.6-18.84-.14-3.68-.44-8.24,1.43-11,7.61-11.07,15.89-21.69,24.22-32.25,4.71-6,10.22-11.34,14.89-17.36,1.52-2,1.48-5.13,2.16-7.74,37.24,13.78,67.52,37.11,92,68C448.64,147.13,462.84,177,469.36,210.37Z"/><path class="earth-cls-2" d="M44.89,308.48c1.76,2.69,4.07,5.18,5.19,8.12,4.27,11.24,8.17,22.62,12.85,35.77,4.86-4.26,8-7.08,11.24-9.84s6.53-6,10.2-8.37c5.36-3.46,10.82-7.11,16.75-9.23,4.33-1.54,10.28-2.48,14.15-.71,38.15,17.43,67.57,43.78,82.87,83.91,1.89,4.94,3.94,9.84,5.66,14.84,3.14,9.14,6.21,18.37-4.81,25.26,8,7.82,21.3,8.77,22.1,21.89-24-2-46-10.35-66.94-21.51-52.84-28.18-88.14-71.25-106.82-128C46.05,316.71,45.68,312.52,44.89,308.48Z"/><path class="earth-cls-2" d="M261.87,38c-2,2.82-3.53,6.14-6.05,8.36C237.71,62.42,220,79,201,93.86c-19.66,15.42-40.13,29.93-61.18,43.38-15.48,9.9-32.75,16.94-48.56,26.36-4.76,2.82-8.63,8.86-10.62,14.26C74.82,193.67,67,207.13,53.4,218.2c-6.07,5-6.75,16.42-10.12,24.83a109.82,109.82,0,0,1-5.11,9.87c-1-37.68,9-72.7,27.7-105C102.22,85.37,156.85,49.21,228.4,39,239.38,37.42,250.71,38.3,261.87,38Z"/></svg>