<svg id="圖層_1" data-name="圖層 1" xmlns="http://www.w3.org/2000/svg" viewBox="0 0 560.72 572.87"><defs></defs><title>Star</title><path class="star-cls-1" d="M123.38,478c-7-12.77-4.13-26.27-.65-38.75,9.12-32.68,19.61-64.95,29.55-97.38,4.3-16.14-.7-29.39-11-41.46-13-15.24-25.94-30.52-38.08-46.47-15.72-20.63-33.92-39.8-39.84-66.91,21.77-15,45.63-13.76,69.6-9.18,20.22,3.87,40.3,8.6,60.27,13.7,8.15,2.08,12,.37,15.58-8.1q24.36-57.1,50.47-113.38c3.72-8,11.35-13.92,17.18-20.8,31.1,12.41,43.86,38.68,50,70.8,3.44,17.93,9.21,35.36,13.65,53.09,3.44,13.74,11.91,20.4,25.17,20.95,5.13,2.18,10.1,5.33,15.43,6.39,27.94,5.51,56.12,9.8,83.91,16,10.94,2.44,21.17,8.64,26.59,20.37C490.91,255.36,479,266.4,466.58,276c-21.29,16.49-43.47,31.72-65.3,47.45-11.12,8-19,18.07-17.44,33.21,1.41,13.94,4.29,27.77,4.94,41.73.86,18.49,2.22,37.39-.46,55.49-2.35,15.9-15.8,21.71-30.3,15.61a157.18,157.18,0,0,1-29.92-16.59c-16.21-11.52-31.62-24.27-47.4-36.45-15.44-11.91-27.83-12.7-43.77-1.76-12.36,8.49-24,18.11-36.26,26.79C176.94,458.34,152.71,474.17,123.38,478Z"/><path class="star-cls-2" d="M123.38,478c29.33-3.85,53.56-19.68,77.29-36.52,12.25-8.68,23.9-18.3,36.26-26.79,15.94-10.94,28.33-10.15,43.77,1.76,15.78,12.18,31.19,24.93,47.4,36.45A157.18,157.18,0,0,0,358,469.51c14.5,6.1,28,.29,30.3-15.61,2.68-18.1,1.32-37,.46-55.49-.65-14-3.53-27.79-4.94-41.73-1.54-15.14,6.32-25.19,17.44-33.21,21.83-15.73,44-31,65.3-47.45,12.43-9.62,24.33-20.66,24.68-39.14,9.6,11.13,9,24.37,1.85,35-10,14.8-21.61,29.12-34.91,40.63-16.35,14.16-34.92,25.59-53,37.41-7.24,4.73-9.49,8.52-6.62,18,9.25,30.49,17.45,61.35,25.15,92.32,2.12,8.52,1.7,17.94,1.34,26.89-.81,20.2-16.59,33.87-35.26,29-14.5-3.81-29.4-8.74-42.09-16.72-24.14-15.17-47.17-32.39-69.94-49.8-7.87-6-12.92-6-20.62-.09-22.88,17.52-47.25,32.75-75,39.94-12.11,3.14-25.12,3.59-37.69,3.36C135.4,492.56,127.18,488,123.38,478Z"/><path class="star-cls-2" d="M63.39,187.05c5.92,27.11,24.12,46.28,39.84,66.91,12.14,16,25.11,31.23,38.08,46.47,10.27,12.07,15.27,25.32,11,41.46-28.7-31.31-58.14-61.93-85.65-94.35C58.54,238,54.49,223.78,51.25,211,48.74,201.05,54.33,192.26,63.39,187.05Z"/><path class="star-cls-2" d="M365.33,194.13c-13.26-.55-21.73-7.21-25.17-20.95C335.72,155.45,330,138,326.51,120.09c-6.16-32.12-18.92-58.39-50-70.8,18.11-7.26,36.1-2.64,46.82,15.08A202.49,202.49,0,0,1,343.8,110C352.18,137.61,358.28,166,365.33,194.13Z"/></svg>